HIERARCHY
ROOT Hips
{
	OFFSET -0.001795 -0.223333 0.028219
	CHANNELS 6 Xposition Yposition Zposition Zrotation Yrotation Xrotation 
	JOINT LeftUpLeg
	{
		OFFSET 0.069520 -0.091406 -0.006815
		CHANNELS 3 Zrotation Yrotation Xrotation
		JOINT LeftLeg
		{
			OFFSET 0.034277 -0.375199 -0.004496
			CHANNELS 3 Zrotation Yrotation Xrotation
			JOINT LeftFoot
			{
				OFFSET -0.013596 -0.397961 -0.043693
				CHANNELS 3 Zrotation Yrotation Xrotation
				JOINT LeftToe
				{
					OFFSET 0.026358 -0.055791 0.119288
					CHANNELS 3 Zrotation Yrotation Xrotation
					End Site
					{
						OFFSET 0.000000 0.000000 0.000000
					}
				}
			}
		}
	}
	JOINT RightUpLeg
	{
		OFFSET -0.067670 -0.090522 -0.004320
		CHANNELS 3 Zrotation Yrotation Xrotation
		JOINT RightLeg
		{
			OFFSET -0.038290 -0.382569 -0.008850
			CHANNELS 3 Zrotation Yrotation Xrotation
			JOINT RightFoot
			{
				OFFSET 0.015774 -0.398415 -0.042312
				CHANNELS 3 Zrotation Yrotation Xrotation
				JOINT RightToe
				{
					OFFSET -0.025372 -0.048144 0.123348
					CHANNELS 3 Zrotation Yrotation Xrotation
					End Site
					{
						OFFSET 0.000000 0.000000 0.000000
					}
				}
			}
		}
	}
	JOINT Spine
	{
		OFFSET -0.002533 0.108963 -0.026696
		CHANNELS 3 Zrotation Yrotation Xrotation
		JOINT Spine1
		{
			OFFSET 0.005487 0.135180 0.001092
			CHANNELS 3 Zrotation Yrotation Xrotation
			JOINT Spine2
			{
				OFFSET 0.001457 0.052922 0.025425
				CHANNELS 3 Zrotation Yrotation Xrotation
				JOINT Neck
				{
					OFFSET -0.002778 0.213870 -0.042857
					CHANNELS 3 Zrotation Yrotation Xrotation
					JOINT Head
					{
						OFFSET 0.005152 0.064970 0.051349
						CHANNELS 3 Zrotation Yrotation Xrotation
						End Site
						{
							OFFSET 0.000000 0.000000 0.000000
						}
					}
				}
				JOINT LeftShoulder
				{
					OFFSET 0.078845 0.121749 -0.034090
					CHANNELS 3 Zrotation Yrotation Xrotation
					JOINT LeftArm
					{
						OFFSET 0.090977 0.030469 -0.008868
						CHANNELS 3 Zrotation Yrotation Xrotation
						JOINT LeftForeArm
						{
							OFFSET 0.259612 -0.012772 -0.027456
							CHANNELS 3 Zrotation Yrotation Xrotation
							JOINT LeftHand
							{
								OFFSET 0.249234 0.008986 -0.001171
								CHANNELS 3 Zrotation Yrotation Xrotation
								End Site
								{
									OFFSET 0.000000 0.000000 0.000000
								}
							}
						}
					}
				}
				JOINT RightShoulder
				{
					OFFSET -0.081759 0.118833 -0.038615
					CHANNELS 3 Zrotation Yrotation Xrotation
					JOINT RightArm
					{
						OFFSET -0.096012 0.032551 -0.009143
						CHANNELS 3 Zrotation Yrotation Xrotation
						JOINT RightForeArm
						{
							OFFSET -0.253742 -0.013329 -0.021401
							CHANNELS 3 Zrotation Yrotation Xrotation
							JOINT RightHand
							{
								OFFSET -0.255298 0.007772 -0.005559
								CHANNELS 3 Zrotation Yrotation Xrotation
								End Site
								{
									OFFSET 0.000000 0.000000 0.000000
								}
							}
						}
					}
				}
			}
		}
	}
}
MOTION
Frames: 16
Frame Time: 0.050000
-1.340439 0.923422 0.151841 6.466734 62.014360 -1.921923 7.482131 -1.253827 -8.011286 -24.706780 -3.298348 37.009124 18.039971 28.147033 14.932892 0.000000 0.000000 0.000000 1.183283 0.238606 -6.005824 2.309483 -6.135450 22.928594 -1.708319 -11.809325 -9.301815 0.000000 0.000000 0.000000 1.247411 -3.042539 19.093307 -0.127956 1.142287 -7.409618 0.479745 3.108452 18.076356 3.338482 5.870374 -34.916484 0.000000 0.000000 0.000000 -25.076061 -21.845347 -5.122326 -50.244233 -5.729862 0.145869 -4.482920 -44.852533 -1.886660 0.000000 0.000000 0.000000 23.912053 9.651050 16.339398 39.846942 17.747276 -2.111304 2.889469 29.783277 1.948819 0.000000 0.000000 0.000000 
-1.369254 0.926929 0.136735 7.184568 62.929778 -1.015484 6.884427 -1.225591 -8.506662 -24.863840 -3.396351 36.288096 16.831066 26.641237 11.419873 0.000000 0.000000 0.000000 1.659193 0.334548 -7.448522 1.291469 -5.222784 21.685581 -2.213124 -12.061585 -7.249687 0.000000 0.000000 0.000000 0.891667 -2.955137 18.942574 0.249522 0.991945 -7.267428 0.389819 3.401638 17.023934 3.320274 5.892632 -34.069495 0.000000 0.000000 0.000000 -25.428885 -22.884913 -4.960667 -49.308374 -5.734563 0.472432 -5.855503 -43.095872 -1.142206 0.000000 0.000000 0.000000 23.960072 8.447311 15.732817 39.620409 16.624133 -2.415468 3.404783 30.613639 2.218618 0.000000 0.000000 0.000000 
-1.396489 0.931160 0.122265 7.066104 64.503651 -1.364871 6.724088 -1.249394 -8.905771 -24.438291 -3.803405 36.857240 16.134669 25.908670 11.948831 0.000000 0.000000 0.000000 1.517337 0.269915 -6.918392 2.407323 -5.213007 19.660490 -3.168945 -13.917341 -5.392277 0.000000 0.000000 0.000000 1.425196 -2.933307 18.409775 1.370015 0.596176 -7.143439 -1.017722 2.807929 17.111238 4.093971 5.618600 -34.064348 0.000000 0.000000 0.000000 -25.835149 -23.245072 -5.244117 -49.261049 -7.048663 1.255308 -6.817709 -41.888899 -0.795507 0.000000 0.000000 0.000000 24.477155 9.140474 16.703274 39.522718 18.248205 -2.040657 1.797561 28.895502 1.567248 0.000000 0.000000 0.000000 
-1.422810 0.934014 0.108620 6.306151 63.956137 -2.491801 5.980177 -1.097105 -8.245410 -22.698310 -3.934709 36.846166 15.657178 25.468109 12.615081 0.000000 0.000000 0.000000 1.909366 0.333048 -6.238259 3.021365 -4.630190 17.378314 -3.281907 -12.625152 -3.229462 0.000000 0.000000 0.000000 2.075627 -2.925727 18.069056 -0.286755 1.087216 -6.629686 0.559738 3.150045 17.177926 3.543710 5.837953 -33.513567 0.000000 0.000000 0.000000 -24.590584 -23.615304 -4.305440 -50.813076 -9.978827 1.835222 -7.724288 -40.220600 -0.369121 0.000000 0.000000 0.000000 23.513171 10.353556 16.869917 40.096875 19.449620 -1.425425 0.107196 28.117081 1.080067 0.000000 0.000000 0.000000 
-1.449031 0.935097 0.095750 5.202972 64.017811 -3.079101 5.138375 -0.962083 -7.596057 -20.472643 -4.295206 36.916309 15.187254 24.890998 12.986662 0.000000 0.000000 0.000000 2.081254 0.375216 -6.517693 3.865656 -4.292175 15.143068 -3.844911 -13.989276 -2.846431 0.000000 0.000000 0.000000 2.171428 -2.636914 16.973742 0.371298 0.866157 -6.677374 0.343002 2.856275 17.228522 3.100117 6.022943 -33.919571 0.000000 0.000000 0.000000 -24.050526 -23.912114 -3.822664 -50.938909 -9.921244 1.573163 -8.686373 -41.369000 -0.054652 0.000000 0.000000 0.000000 23.177273 11.181546 17.266242 39.591622 20.883535 -0.909765 -0.342446 28.338251 0.959935 0.000000 0.000000 0.000000 
-1.476108 0.934727 0.083574 4.438546 64.751807 -3.871381 3.390761 -0.687918 -5.929690 -17.951891 -4.797401 36.723052 15.085346 24.155967 11.816661 0.000000 0.000000 0.000000 2.358069 0.421674 -7.239806 4.106382 -4.147242 14.126902 -4.272396 -13.879754 -1.208728 0.000000 0.000000 0.000000 2.463329 -2.583207 16.598408 0.183974 0.946633 -6.734152 0.434052 2.044153 17.255292 2.625193 6.207418 -33.799550 0.000000 0.000000 0.000000 -24.359447 -23.744965 -3.881593 -50.204767 -11.103251 2.087300 -9.994584 -41.078208 0.542369 0.000000 0.000000 0.000000 23.981458 11.597648 17.909996 37.491622 22.631243 -0.721716 -0.852076 29.009630 0.842362 0.000000 0.000000 0.000000 
-1.503994 0.932758 0.072121 3.162549 65.339675 -4.809334 2.969155 -0.602478 -5.066773 -16.824286 -5.173103 37.210552 14.919493 23.291163 9.712020 0.000000 0.000000 0.000000 3.139468 0.561583 -9.073188 3.872403 -3.962246 13.819859 -4.981499 -14.243771 0.541764 0.000000 0.000000 0.000000 2.749905 -2.544006 16.253742 0.430181 0.900660 -6.957664 0.150648 2.099955 17.105475 2.334685 6.323470 -32.729879 0.000000 0.000000 0.000000 -23.622367 -24.381794 -3.494498 -50.513415 -11.933292 2.350377 -9.438597 -40.758619 0.209279 0.000000 0.000000 0.000000 23.721105 12.640467 18.640175 37.657980 24.200618 -0.167753 -2.083064 29.917495 0.601306 0.000000 0.000000 0.000000 
-1.533057 0.930830 0.061481 2.428400 64.881027 -5.009719 2.624041 -0.508975 -3.585859 -15.614810 -4.881928 35.590822 16.473441 24.268583 9.235732 0.000000 0.000000 0.000000 3.566537 0.604282 -11.530883 3.074720 -3.820850 14.885478 -5.089482 -13.520237 1.423060 0.000000 0.000000 0.000000 2.056585 -2.362281 16.080196 0.986289 0.791531 -7.456106 0.434801 2.926118 17.074118 0.937027 6.959349 -32.853671 0.000000 0.000000 0.000000 -24.234899 -23.910198 -4.280384 -50.400363 -11.641624 2.454561 -10.139209 -40.536346 0.433967 0.000000 0.000000 0.000000 24.006743 13.971434 19.861817 35.446196 25.836866 0.023584 -1.324548 31.376217 0.796312 0.000000 0.000000 0.000000 
-1.563668 0.930140 0.051422 2.187415 65.421960 -4.941060 1.841514 -0.395210 -1.701170 -15.741472 -5.173804 36.849051 14.876278 21.666358 5.664317 0.000000 0.000000 0.000000 3.970180 0.615145 -12.881573 2.982331 -3.514200 13.986375 -5.950619 -13.525113 4.255036 0.000000 0.000000 0.000000 1.951440 -2.099934 15.113259 0.747638 0.882251 -7.508150 0.016231 3.055810 18.141063 2.582310 6.448263 -33.221197 0.000000 0.000000 0.000000 -24.256320 -25.166850 -4.022456 -49.426165 -11.490200 2.609165 -7.667372 -40.234646 -0.493967 0.000000 0.000000 0.000000 24.335916 14.818729 20.962635 35.076430 28.092416 0.496402 -3.484231 33.632225 0.349185 0.000000 0.000000 0.000000 
-1.595893 0.928491 0.041807 1.110706 65.128840 -6.897993 1.569872 -0.430656 1.763744 -15.181096 -5.220241 37.195623 13.054231 19.224897 4.875605 0.000000 0.000000 0.000000 5.020306 0.790014 -13.444190 2.660300 -3.316222 13.831346 -6.356142 -12.804081 6.806072 0.000000 0.000000 0.000000 1.850530 -2.133921 15.354271 -0.307932 1.169740 -7.007891 0.460827 4.258858 19.357920 3.606039 6.203374 -32.476134 0.000000 0.000000 0.000000 -23.508775 -25.047537 -4.362971 -49.958144 -12.920741 3.087971 -4.887019 -39.426822 -1.657632 0.000000 0.000000 0.000000 24.380207 16.070807 22.035019 36.102334 30.923191 1.545864 -6.042998 34.090904 -0.418734 0.000000 0.000000 0.000000 
-1.629920 0.927336 0.032376 -1.112078 65.981782 -9.068721 1.276553 -0.526873 3.737666 -12.321976 -4.993138 33.947925 13.398003 18.921755 5.179717 0.000000 0.000000 0.000000 5.086218 0.651506 -15.286509 3.387120 -3.441425 13.099863 -7.656951 -12.727543 11.443151 0.000000 0.000000 0.000000 1.163560 -2.306983 16.342361 -0.004726 1.253349 -8.006854 0.385851 3.923726 20.472443 4.420076 5.974488 -32.279405 0.000000 0.000000 0.000000 -23.445508 -26.155400 -3.814729 -48.763358 -12.288469 2.839868 -3.913097 -38.825400 -1.815500 0.000000 0.000000 0.000000 25.226014 15.721226 22.522953 36.669056 33.354083 2.145897 -6.605097 34.175650 -0.599625 0.000000 0.000000 0.000000 
-1.665569 0.924872 0.022448 -2.591627 65.829467 -10.948746 1.515955 -0.831208 6.526296 -9.697384 -3.817437 28.218690 13.559384 17.340623 2.567483 0.000000 0.000000 0.000000 6.083682 0.737555 -16.727266 2.967439 -3.213603 13.053112 -7.692406 -11.350869 14.188218 0.000000 0.000000 0.000000 0.244930 -2.529031 17.669639 -0.317687 1.364575 -7.905156 0.453560 4.822369 20.845545 6.479367 5.152515 -32.185577 0.000000 0.000000 0.000000 -23.342184 -27.701404 -3.142772 -48.685835 -12.306956 2.952538 0.821728 -37.826761 -3.402753 0.000000 0.000000 0.000000 24.636655 15.354648 22.065107 39.511105 34.839306 3.353820 -8.756597 34.863181 -1.016284 0.000000 0.000000 0.000000 
-1.702410 0.922148 0.011466 -2.481858 66.500571 -11.385760 1.549750 -0.919324 7.036581 -7.960541 -3.257132 24.781476 13.787682 16.042611 0.166637 0.000000 0.000000 0.000000 5.866508 0.478932 -18.372228 2.599580 -3.439079 14.425409 -7.429179 -9.989680 16.011611 0.000000 0.000000 0.000000 -1.096415 -2.791256 19.213740 -0.800410 1.520078 -7.780382 0.312680 4.517473 20.542338 7.399691 4.624640 -31.938805 0.000000 0.000000 0.000000 -23.232207 -28.512532 -2.503531 -47.295800 -12.526311 3.105348 2.451939 -37.179547 -3.752073 0.000000 0.000000 0.000000 25.691912 15.300162 22.534245 40.788972 35.116505 3.487329 -9.579528 35.512679 -1.222088 0.000000 0.000000 0.000000 
-1.739534 0.920393 -0.000271 -1.135120 65.485061 -11.279173 1.418346 -0.848757 6.898692 -8.199073 -2.809182 23.203284 13.911254 16.122363 -0.462995 0.000000 0.000000 0.000000 5.532222 0.362016 -19.047435 2.787532 -3.419677 14.445715 -6.257212 -7.631089 17.320174 0.000000 0.000000 0.000000 -2.588410 -3.097346 21.089899 -2.229453 2.005980 -7.925355 0.771580 4.907196 22.110118 9.603981 3.640206 -33.151237 0.000000 0.000000 0.000000 -22.614027 -29.191150 -1.685602 -46.449410 -14.186425 3.480590 5.296693 -37.018671 -4.635371 0.000000 0.000000 0.000000 25.639643 14.690966 21.938898 42.144596 35.925157 4.016566 -9.157660 36.425226 -0.929924 0.000000 0.000000 0.000000 
-1.775711 0.920160 -0.010906 -1.661204 64.614904 -12.912204 1.589681 -0.793528 6.437011 -8.209097 -2.619924 22.572912 15.061358 17.988487 0.406959 0.000000 0.000000 0.000000 4.691132 0.076788 -20.043480 4.080416 -4.693803 17.098135 -6.069792 -8.106520 15.689326 0.000000 0.000000 0.000000 -4.112993 -3.462732 23.046613 -2.169709 2.083600 -8.483401 1.411960 5.213145 23.353978 8.968381 3.823464 -32.686189 0.000000 0.000000 0.000000 -23.251239 -30.716963 -0.759284 -43.996231 -14.387998 3.616383 5.245776 -37.174316 -4.337324 0.000000 0.000000 0.000000 23.971956 14.918937 20.796089 45.388688 35.356696 4.936645 -10.024153 37.146421 -0.949895 0.000000 0.000000 0.000000 
-1.810208 0.922396 -0.019098 -2.229490 63.270402 -13.961254 2.296628 -0.788561 5.516463 -8.577776 -2.313182 21.542945 15.506675 18.826018 0.573552 0.000000 0.000000 0.000000 3.284782 -0.298900 -20.524605 3.771611 -6.798290 23.626660 -4.003912 -6.451056 10.134194 0.000000 0.000000 0.000000 -4.794560 -3.525712 23.714742 -3.087943 2.210390 -6.974756 1.981507 4.608324 22.827676 8.907868 3.453839 -32.050985 0.000000 0.000000 0.000000 -22.598871 -29.773810 -0.142073 -43.352313 -15.113758 3.488255 6.708050 -37.947769 -4.800499 0.000000 0.000000 0.000000 23.620538 15.405876 20.117925 47.423747 34.888847 5.461153 -8.222848 37.528861 -0.300787 0.000000 0.000000 0.000000 
